<svg id="Layer_5" enable-background="new 0 0 64 64" height="512" viewBox="0 0 64 64" width="512" xmlns="http://www.w3.org/2000/svg"><g><g><path d="m31.743 248c-.757 0-1.459-.376-1.878-1.005l-.066-.1c-.79-1.187-2.114-1.896-3.542-1.896h-9c-.29 0-.587.031-.882.094l-.4.084c3.371 5.299 9.28 8.823 16.025 8.823 1.32 0 2.608-.136 3.852-.392.087-.341.148-.683.148-1.024v-.327c0-2.348-1.909-4.257-4.257-4.257z" fill="#f0bc5e"/></g><g><path d="m-431 138.423v15.154c4.513-.829 8.751-2.859 12.247-5.918.478-.419.753-1.023.753-1.659s-.274-1.24-.753-1.659c-3.496-3.059-7.734-5.089-12.247-5.918z" fill="#f0bc5e"/></g><g><g><path d="m-36 50h-13.156-.013c-.401 1.392-1.526 2.497-3.001 2.808-2.629.555-6.752 1.192-11.83 1.192s-9.201-.637-11.83-1.192c-1.476-.311-2.601-1.417-3.001-2.808h-.013-12.156c-1.657 0-3 1.343-3 3s1.343 3 3 3h9l.164.986c.483 2.894 2.986 5.014 5.919 5.014h34.917c1.105 0 2-.895 2-2s-.895-2-2-2h-5c-1.105 0-2-.895-2-2s.895-2 2-2h10c1.105 0 2-.895 2-2s-.895-2-2-2z" fill="#f0bc5e"/></g><g><g><path d="m-92 8c-1.654 0-3-1.346-3-3s1.346-3 3-3 3 1.346 3 3-1.346 3-3 3z" fill="#f0bc5e"/></g></g><g><g><path d="m-36 8c-1.654 0-3-1.346-3-3s1.346-3 3-3 3 1.346 3 3-1.346 3-3 3z" fill="#f0bc5e"/></g></g><g><g><path d="m-89 21c-2.206 0-4-1.794-4-4s1.794-4 4-4 4 1.794 4 4-1.794 4-4 4z" fill="#f0bc5e"/></g></g><g><g><path d="m-82 10c-2.206 0-4-1.794-4-4s1.794-4 4-4 4 1.794 4 4-1.794 4-4 4z" fill="#f0bc5e"/></g></g><g><g><path d="m-39 21c-2.206 0-4-1.794-4-4s1.794-4 4-4 4 1.794 4 4-1.794 4-4 4z" fill="#f0bc5e"/></g></g><g><g><path d="m-46 10c-2.206 0-4-1.794-4-4s1.794-4 4-4 4 1.794 4 4-1.794 4-4 4z" fill="#f0bc5e"/></g></g></g><g><path d="m49.224 227h-9.224c-1.654 0-3 1.346-3 3s1.346 3 3 3h3c.552 0 1 .448 1 1 0 1.654 1.346 3 3 3h3.734l.105-.003c.014-.001.033-.002.054-.003.069-.655.107-1.32.107-1.994 0-2.861-.641-5.569-1.776-8z" fill="#f0bc5e"/></g><g><path d="m24 231h-1.137c-.522 0-.961-.408-.997-.927l-.021-.285c-.11-1.563-1.425-2.788-2.992-2.788h-4.077c-1.135 2.431-1.776 5.139-1.776 8 0 .676.038 1.342.107 2h10.893c1.654 0 3-1.346 3-3s-1.346-3-3-3z" fill="#f0bc5e"/></g><g><path d="m-64 31c-.966 0-1.875.515-2.372 1.343l-2.149 3.583c-.314.52-.479 1.116-.479 1.725 0 1.847 1.503 3.349 3.35 3.349h3.301c1.847 0 3.35-1.502 3.35-3.349 0-.608-.165-1.205-.478-1.724l-2.15-3.584c-.498-.828-1.407-1.343-2.373-1.343zm3 6.651c0 .744-.605 1.349-1.35 1.349h-3.301c-.744 0-1.35-.605-1.35-1.349 0-.245.066-.485.192-.694l2.15-3.584c.139-.23.391-.373.659-.373s.52.143.657.372l2.151 3.585c.126.209.192.449.192.694z"/><path d="m-51.323 14.447-7.604 3.548c-2.141 1-3.348 3.267-2.919 5.597.608 3.133 3.121 5.646 6.254 6.254.526.102 1.055.152 1.578.152 1.857 0 3.657-.632 5.101-1.823 1.851-1.527 2.913-3.778 2.913-6.175 0-3.235-1.929-6.133-4.915-7.382zm3.323 7.553c0 1.798-.797 3.486-2.186 4.632s-3.222 1.603-5.025 1.25c-2.34-.454-4.218-2.331-4.684-4.734-.248-1.352.497-2.726 1.813-3.34l6.784-3.165c2.017 1.016 3.298 3.074 3.298 5.357z"/><path d="m-79.087 28.175c1.444 1.191 3.243 1.823 5.101 1.823.523 0 1.052-.05 1.578-.152 3.133-.608 5.646-3.121 6.27-6.337.413-2.247-.794-4.514-2.935-5.514l-7.603-3.548-.408.171c-2.986 1.249-4.916 4.147-4.916 7.382 0 2.397 1.062 4.648 2.913 6.175zm2.385-11.532 6.783 3.165c1.316.614 2.062 1.988 1.802 3.403-.454 2.34-2.332 4.217-4.672 4.671-1.804.353-3.637-.105-5.025-1.25-1.389-1.146-2.186-2.834-2.186-4.632 0-2.283 1.281-4.342 3.298-5.357z"/><path d="m-47 43c2.757 0 5-2.243 5-5h-2c0 1.654-1.346 3-3 3z"/><path d="m-86 38c0 2.757 2.243 5 5 5v-2c-1.654 0-3-1.346-3-3z"/><path d="m-85.878 14.53c.638-1.714 1.527-3.303 2.655-4.741-.655-.212-1.237-.58-1.696-1.073-1.078 1.404-1.955 2.933-2.622 4.569.661.26 1.228.696 1.663 1.245z"/><path d="m-69.352 3h10.703c3.056 0 6.051.811 8.716 2.334.116-.687.411-1.307.831-1.828-2.926-1.637-6.203-2.506-9.546-2.506h-10.703c-3.343 0-6.62.869-9.547 2.505.42.521.715 1.141.831 1.828 2.664-1.522 5.66-2.333 8.715-2.333z"/><path d="m-40.464 13.286c-.663-1.639-1.539-3.169-2.613-4.575-.459.495-1.041.864-1.698 1.077 1.125 1.44 2.017 3.028 2.652 4.743.434-.548.999-.984 1.659-1.245z"/><path d="m-41.711 30.726.682-1.382c1.276-2.585 1.967-5.463 2.019-8.345-.732-.002-1.409-.214-1.999-.561.003.07.01.14.01.211 0 2.693-.63 5.394-1.822 7.811l-1.488 3.016.81.469c2.497 1.447 3.842 4.237 3.425 7.108-.182 1.249-.763 2.456-1.679 3.491-1.385 1.56-3.491 2.456-5.781 2.456h-2.466v3.895c0 .872-.383 1.675-1 2.231v-.126c0-2.206-1.794-4-4-4-1.201 0-2.266.542-3 1.382-.734-.84-1.799-1.382-3-1.382s-2.266.542-3 1.382c-.734-.84-1.799-1.382-3-1.382s-2.266.542-3 1.382c-.734-.84-1.799-1.382-3-1.382-2.206 0-4 1.794-4 4v.125c-.617-.556-1-1.359-1-2.231v-3.894h-2.466c-2.29 0-4.396-.896-5.779-2.457-.916-1.035-1.497-2.242-1.679-3.49-.417-2.872.928-5.662 3.425-7.108l.81-.469-1.488-3.016c-1.193-2.417-1.823-5.118-1.823-7.811 0-.071.006-.14.01-.211-.59.346-1.268.559-1.999.561.052 2.882.743 5.76 2.019 8.345l.682 1.382c-2.699 1.958-4.104 5.243-3.613 8.614.237 1.635.984 3.201 2.159 4.529 1.762 1.99 4.414 3.131 7.276 3.131h.466v1.895c0 2.35 1.667 4.408 3.964 4.893 2.623.552 6.841 1.212 12.036 1.212s9.413-.66 12.036-1.213c2.297-.485 3.964-2.542 3.964-4.892v-1.895h.466c2.862 0 5.515-1.141 7.277-3.131 1.175-1.328 1.922-2.894 2.159-4.529.491-3.371-.914-6.656-3.613-8.614zm-29.289 21.857c-1.551-.186-2.892-.41-4-.628v-.955c0-1.103.897-2 2-2s2 .897 2 2zm6 .402c-1.42-.024-2.762-.093-4-.198v-1.787c0-1.103.897-2 2-2s2 .897 2 2zm6-.198c-1.238.105-2.58.174-4 .198v-1.985c0-1.103.897-2 2-2s2 .897 2 2zm6-.832c-1.108.219-2.449.442-4 .628v-1.583c0-1.103.897-2 2-2s2 .897 2 2z"/><path d="m22 35c0 1.57.526 3.016 1.402 4.185l-5.038 5.038 1.414 1.414 5.038-5.038c1.169.875 2.615 1.401 4.184 1.401.695 0 1.366-.105 2-.295v6.295h2v-7.264c.146-.102.29-.207.428-.32.799.381 1.674.584 2.572.584 1.035 0 2.009-.263 2.86-.727l10.483 10.484 1.414-1.414-10.319-10.32c.967-1.065 1.562-2.474 1.562-4.023 0-1.894-.878-3.6-2.297-4.71l13.876-4.996-.678-1.882-13.935 5.018c.01-.144.034-.284.034-.43 0-1.779-.782-3.374-2.016-4.474l4.425-9.656-1.818-.833-4.314 9.414c-.703-.289-1.471-.451-2.277-.451-3.134 0-5.71 2.416-5.974 5.482l-13.479-8.986-1.109 1.664 13.124 8.75c-2.123 1.203-3.562 3.48-3.562 6.09zm15.879-3.526c1.291.683 2.121 2.017 2.121 3.526 0 2.206-1.794 4-4 4-.393 0-.779-.058-1.149-.168.724-1.102 1.149-2.418 1.149-3.832 0-.59-.081-1.161-.22-1.709.845-.441 1.559-1.067 2.099-1.817zm-4.879-7.474c2.206 0 4 1.794 4 4 0 1.433-.779 2.719-1.993 3.424-1.223-2.046-3.455-3.424-6.007-3.424 0-2.206 1.794-4 4-4zm-4 6c2.757 0 5 2.243 5 5s-2.243 5-5 5-5-2.243-5-5 2.243-5 5-5z"/><path d="m12 47v-2c-3.859 0-7 3.14-7 7h2c0-2.757 2.243-5 5-5z"/><path d="m59 55h-2c0 1.103-.897 2-2 2v2c2.206 0 4-1.794 4-4z"/><path d="m-422 102h-20v2h20c1.654 0 3 1.346 3 3s-1.346 3-3 3h-8v2c0 1.654-1.346 3-3 3h-11c-1.654 0-3 1.346-3 3v7h2v-3.964c12.552.258 18.988 1.977 19.937 2.964-1.038 1.079-8.603 3-22.937 3s-21.898-1.921-22.937-3c.949-.987 7.384-2.706 19.937-2.964v3.964h2v-7c0-1.654-1.346-3-3-3h-13c-.551 0-1-.449-1-1s.449-1 1-1h5 5v-2h-5-5-11c-.551 0-1-.449-1-1s.449-1 1-1h12c1.654 0 3-1.346 3-3 0-.551.449-1 1-1h7v-3c0-1.654 1.346-3 3-3h9v-2h-9c-2.757 0-5 2.243-5 5v1h-5c-1.654 0-3 1.346-3 3 0 .551-.449 1-1 1h-12c-1.654 0-3 1.346-3 3s1.346 3 3 3h8.184c-.112.314-.184.648-.184 1 0 1.654 1.346 3 3 3h13c.551 0 1 .449 1 1v1.032c-5.366.119-22 .825-22 4.968 0 4 15.193 4.802 22 4.961v6.039h2v-6.005c.444.004.793.005 1 .005s.556-.001 1-.005v6.005h2v-6.039c6.807-.159 22-.961 22-4.961 0-4.143-16.634-4.849-22-4.968v-1.032c0-.551.449-1 1-1h11c2.757 0 5-2.243 5-5h6c2.757 0 5-2.243 5-5s-2.243-5-5-5z"/><path d="m-465 145h2v-2h6v-2h-8z"/><path d="m-455 141h2v2h-2z"/><path d="m-435.63 137h-20.956l-4-4h-18.549l6.135 7.362v2.638h-3c-1.654 0-3 1.346-3 3s1.346 3 3 3h3v2.638l-6.135 7.362h18.549l4-4h20.956c6.453 0 12.681-2.34 17.536-6.589.695-.608 1.094-1.487 1.094-2.411s-.399-1.803-1.094-2.411c-4.855-4.249-11.083-6.589-17.536-6.589zm-39.235-2h13.451l2 2h-6.586c-1.302 0-2.402.839-2.816 2h-2.716zm5.865 6v2h-2v-2zm-7 6c-.551 0-1-.448-1-1s.449-1 1-1h7v2zm7 2v2h-2v-2zm7.586 8h-13.451l3.333-4h2.716c.414 1.161 1.514 2 2.816 2h6.586zm42.003-10.095c-4.491 3.931-10.251 6.095-16.219 6.095h-30.37c-.551 0-1-.448-1-1v-12c0-.552.449-1 1-1h30.37c5.968 0 11.729 2.164 16.22 6.095.261.229.411.558.411.905s-.151.677-.412.905z"/><path d="m58 197h-10.184c.112-.314.184-.648.184-1 0-1.654-1.346-3-3-3h-15c-2.757 0-5 2.243-5 5v1h-5c-1.654 0-3 1.346-3 3 0 .552-.448 1-1 1h-12c-1.654 0-3 1.346-3 3s1.346 3 3 3h8.184c-.112.314-.184.648-.184 1 0 1.654 1.346 3 3 3h13c.552 0 1 .448 1 1v1.032c-5.366.119-22 .823-22 4.968 0 1.987 3.755 3.185 8.367 3.907-1.506 2.243-2.512 4.727-3.007 7.348-4.205 1.236-6.36 2.828-6.36 4.745 0 2.092 2.716 3.728 6.888 4.892 2.521 8.161 10.134 14.108 19.112 14.108s16.591-5.947 19.112-14.108c4.172-1.164 6.888-2.8 6.888-4.892 0-1.917-2.155-3.509-6.36-4.745-.495-2.621-1.501-5.106-3.007-7.348 4.612-.722 8.367-1.92 8.367-3.907 0-4.145-16.634-4.849-22-4.968v-1.032c0-.552.448-1 1-1h11c2.757 0 5-2.243 5-5v-1h6c2.757 0 5-2.243 5-5s-2.243-5-5-5zm-50 39c0-.49.898-1.524 4.065-2.57-.04.52-.065 1.043-.065 1.57 0 1.248.13 2.466.35 3.651-2.87-.914-4.35-1.916-4.35-2.651zm43.935-2.57c3.167 1.046 4.065 2.08 4.065 2.57 0 .735-1.48 1.737-4.35 2.651.22-1.185.35-2.403.35-3.651 0-.527-.025-1.05-.065-1.57zm-37.935 1.57c0-3.934 1.258-7.646 3.62-10.784 4.107.494 8.494.677 11.38.745v15.997c-6.162-.17-10.994-.852-14.47-1.701-.334-1.367-.53-2.788-.53-4.257zm18 18c-7.645 0-14.175-4.799-16.78-11.536 4.744 1.016 10.778 1.536 16.78 1.536s12.036-.52 16.78-1.536c-2.605 6.737-9.135 11.536-16.78 11.536zm-1-12.013v-15.993c.445.004.793.006 1 .006s.555-.001 1-.006v15.993c-.336.003-.656.013-1 .013s-.664-.01-1-.013zm19-5.987c0 1.469-.196 2.89-.53 4.257-3.476.848-8.308 1.531-14.47 1.701v-15.997c2.887-.067 7.274-.251 11.38-.745 2.362 3.138 3.62 6.85 3.62 10.784zm8-30h-8v3c0 1.654-1.346 3-3 3h-11c-1.654 0-3 1.346-3 3v7h2v-3.964c12.552.258 18.988 1.977 19.937 2.964-1.038 1.079-8.603 3-22.937 3s-21.898-1.921-22.937-3c.949-.987 7.384-2.706 19.937-2.964v3.964h2v-7c0-1.654-1.346-3-3-3h-13c-.552 0-1-.448-1-1s.448-1 1-1h5 5v-2h-5-5-11c-.552 0-1-.448-1-1s.448-1 1-1h12c1.654 0 3-1.346 3-3 0-.552.448-1 1-1h7v-3c0-1.654 1.346-3 3-3h15c.552 0 1 .448 1 1s-.448 1-1 1h-3-4v2h4 3 13c1.654 0 3 1.346 3 3s-1.346 3-3 3z"/></g><g><g><g><path d="m55 63c-4.411 0-8-3.589-8-8s3.589-8 8-8 8 3.589 8 8-3.589 8-8 8z" fill="#f0bc5e"/></g></g><g><g><path d="m12 63c-6.065 0-11-4.935-11-11s4.935-11 11-11 11 4.935 11 11-4.935 11-11 11z" fill="#f0bc5e"/></g></g><g><g><path d="m43 15c-3.859 0-7-3.14-7-7s3.141-7 7-7 7 3.14 7 7-3.141 7-7 7z" fill="#f0bc5e"/></g></g><g><g><path d="m57 28c-2.757 0-5-2.243-5-5s2.243-5 5-5 5 2.243 5 5-2.243 5-5 5z" fill="#f0bc5e"/></g></g><g><g><path d="m32 55c-2.206 0-4-1.794-4-4s1.794-4 4-4 4 1.794 4 4-1.794 4-4 4z" fill="#f0bc5e"/></g></g><g><g><path d="m8 23c-3.859 0-7-3.14-7-7s3.141-7 7-7 7 3.14 7 7-3.141 7-7 7z" fill="#f0bc5e"/></g></g></g></g></svg>